<svg xmlns="http://www.w3.org/2000/svg" viewBox="0 0 240 240" role="img" aria-label="Avatar">
  <defs>
    <linearGradient id="bg" x1="0" x2="1" y1="0" y2="1">
      <stop offset="0" stop-color="#F5F0EA"/>
      <stop offset="1" stop-color="#ffffff"/>
    </linearGradient>
    <radialGradient id="skin" cx="0.5" cy="0.45" r="0.6">
      <stop offset="0" stop-color="#F0C5A5"/>
      <stop offset="1" stop-color="#E3AE8E"/>
    </radialGradient>
    <linearGradient id="hair" x1="0" x2="0" y1="0" y2="1">
      <stop offset="0" stop-color="#3A2E2A"/>
      <stop offset="1" stop-color="#1E1C1B"/>
    </linearGradient>
  </defs>
  <rect width="240" height="240" rx="32" fill="url(#bg)"/>
  <circle cx="120" cy="120" r="74" fill="#FFFFFF" opacity="0.9"/>
  <path d="M58 128c8-36 36-60 62-60s54 24 62 60v18H58v-18z" fill="#A26A46" opacity="0.18"/>
  <ellipse cx="120" cy="122" rx="46" ry="50" fill="url(#skin)"/>
  <path d="M72 112c8-28 28-46 48-46s40 18 48 46c-20 14-44 20-96 0z" fill="url(#hair)"/>
  <path d="M90 156c6 10 18 16 30 16s24-6 30-16" fill="none" stroke="#2A2A2A" stroke-width="4" stroke-linecap="round"/>
  <circle cx="100" cy="126" r="4.5" fill="#2A2A2A"/>
  <circle cx="140" cy="126" r="4.5" fill="#2A2A2A"/>
  <path d="M104 139c8 5 24 5 32 0" fill="none" stroke="#2A2A2A" stroke-width="4" stroke-linecap="round"/>
  
  
  <path d="M90 162c8 14 22 20 30 20s22-6 30-20" fill="none" stroke="#A26A46" stroke-width="6" stroke-linecap="round" opacity="0.45"/>
</svg>
