<svg xmlns="http://www.w3.org/2000/svg" viewBox="0 0 240 240" role="img" aria-label="Avatar">
  <defs>
    <linearGradient id="bg" x1="0" x2="1" y1="0" y2="1">
      <stop offset="0" stop-color="#FFF1F2"/>
      <stop offset="1" stop-color="#FFFFFF"/>
    </linearGradient>
    <radialGradient id="skin" cx="0.5" cy="0.45" r="0.6">
      <stop offset="0" stop-color="#F5CCB0"/>
      <stop offset="1" stop-color="#E7B496"/>
    </radialGradient>
    <linearGradient id="hair" x1="0" x2="0" y1="0" y2="1">
      <stop offset="0" stop-color="#7C2D12"/>
      <stop offset="1" stop-color="#431407"/>
    </linearGradient>
  </defs>
  <rect width="240" height="240" rx="32" fill="url(#bg)"/>
  <circle cx="120" cy="120" r="74" fill="#FFFFFF" opacity="0.9"/>
  <path d="M58 128c8-36 36-60 62-60s54 24 62 60v18H58v-18z" fill="#EA580C" opacity="0.14"/>
  <ellipse cx="120" cy="122" rx="46" ry="50" fill="url(#skin)"/>
  <path d="M72 112c8-28 28-46 48-46s40 18 48 46c-20 14-44 20-96 0z" fill="url(#hair)"/>
  <circle cx="100" cy="126" r="4.5" fill="#202020"/>
  <circle cx="140" cy="126" r="4.5" fill="#202020"/>
  <path d="M104 139c8 5 24 5 32 0" fill="none" stroke="#262626" stroke-width="4" stroke-linecap="round"/>
  <path d="M90 156c6 10 18 16 30 16s24-6 30-16" fill="none" stroke="#262626" stroke-width="4" stroke-linecap="round"/>
  <path d="M86 148c8 20 20 30 34 30s26-10 34-30c-20 10-48 10-68 0z" fill="#5B463A" opacity="0.5"/>
  <path d="M86 126h68" stroke="#EA580C" stroke-width="3" stroke-linecap="round" opacity="0.45"/>
</svg>